<svg xmlns="http://www.w3.org/2000/svg" viewBox="0 0 1200 760">
  <defs>
    <filter id="noise">
      <feTurbulence type="fractalNoise" baseFrequency="0.035" numOctaves="4" seed="17"/>
      <feColorMatrix type="saturate" values="0"/>
      <feComponentTransfer>
        <feFuncA type="table" tableValues="0 .08 .18 .34"/>
      </feComponentTransfer>
    </filter>
    <linearGradient id="wear" x1="0" x2="1">
      <stop offset="0" stop-color="#fff" stop-opacity=".08"/>
      <stop offset=".5" stop-color="#000" stop-opacity=".22"/>
      <stop offset="1" stop-color="#fff" stop-opacity=".05"/>
    </linearGradient>
  </defs>
  <rect width="1200" height="760" fill="#050505"/>
  <rect y="264" width="1200" height="42" fill="#fff"/>
  <rect y="306" width="1200" height="148" fill="#b30000"/>
  <rect y="454" width="1200" height="42" fill="#fff"/>
  <rect y="496" width="1200" height="264" fill="#006b3f"/>
  <g transform="translate(600 380)">
    <path d="M-250 -260 250 260" stroke="#f4f4f4" stroke-width="18"/>
    <path d="M250 -260 -250 260" stroke="#f4f4f4" stroke-width="18"/>
    <path d="M0 -255 92 0 0 255 -92 0Z" fill="#b30000" stroke="#111" stroke-width="7"/>
    <path d="M-92 0 -46 -105 -22 0 -46 105Z" fill="#111"/>
    <path d="M92 0 46 -105 22 0 46 105Z" fill="#111"/>
    <path d="M0 -230 -38 -38 -8 -18Z" fill="#fff"/>
    <path d="M0 -230 38 -38 8 -18Z" fill="#e4e4e4"/>
    <path d="M0 22 46 0 0 -38 -46 0Z" fill="#fff"/>
    <path d="M0 38 -38 200 -8 230Z" fill="#fff"/>
    <path d="M0 38 38 200 8 230Z" fill="#e4e4e4"/>
  </g>
  <rect width="1200" height="760" fill="url(#wear)"/>
  <rect width="1200" height="760" filter="url(#noise)" opacity=".9"/>
</svg>
